<?xml version="1.0" encoding="UTF-8"?>
<svg xmlns="http://www.w3.org/2000/svg" version="1.1" width="100" height="100" viewBox="0 0 100 100"><rect x="0" y="0" width="100" height="100" fill="#ffffff"/><g transform="scale(4.762)"><g transform="translate(0,0)"><path fill-rule="evenodd" d="M9 0L9 1L8 1L8 2L9 2L9 3L8 3L8 4L9 4L9 5L8 5L8 7L9 7L9 8L6 8L6 9L5 9L5 8L0 8L0 9L3 9L3 10L2 10L2 13L3 13L3 12L4 12L4 13L8 13L8 15L9 15L9 16L8 16L8 21L9 21L9 17L10 17L10 18L12 18L12 19L11 19L11 21L13 21L13 20L14 20L14 21L15 21L15 20L17 20L17 21L18 21L18 20L19 20L19 21L20 21L20 20L19 20L19 18L20 18L20 17L19 17L19 18L18 18L18 17L16 17L16 16L17 16L17 15L16 15L16 14L18 14L18 16L20 16L20 14L19 14L19 13L20 13L20 12L21 12L21 11L20 11L20 10L18 10L18 8L17 8L17 9L16 9L16 8L15 8L15 9L16 9L16 10L14 10L14 8L12 8L12 9L11 9L11 10L10 10L10 7L11 7L11 6L12 6L12 7L13 7L13 5L11 5L11 3L12 3L12 4L13 4L13 3L12 3L12 2L13 2L13 1L12 1L12 0L11 0L11 1L10 1L10 0ZM9 1L9 2L10 2L10 3L9 3L9 4L10 4L10 3L11 3L11 2L12 2L12 1L11 1L11 2L10 2L10 1ZM10 5L10 6L9 6L9 7L10 7L10 6L11 6L11 5ZM19 8L19 9L20 9L20 8ZM6 9L6 10L5 10L5 11L6 11L6 12L7 12L7 11L8 11L8 12L11 12L11 13L10 13L10 14L9 14L9 15L10 15L10 14L11 14L11 15L12 15L12 14L13 14L13 16L11 16L11 17L12 17L12 18L13 18L13 19L14 19L14 20L15 20L15 19L14 19L14 18L16 18L16 19L17 19L17 20L18 20L18 19L17 19L17 18L16 18L16 17L14 17L14 18L13 18L13 16L16 16L16 15L15 15L15 14L16 14L16 13L18 13L18 12L16 12L16 11L18 11L18 10L16 10L16 11L12 11L12 10L13 10L13 9L12 9L12 10L11 10L11 11L8 11L8 10L7 10L7 9ZM3 10L3 11L4 11L4 10ZM6 10L6 11L7 11L7 10ZM12 12L12 13L11 13L11 14L12 14L12 13L13 13L13 14L14 14L14 13L15 13L15 12ZM0 0L0 7L7 7L7 0ZM1 1L1 6L6 6L6 1ZM2 2L2 5L5 5L5 2ZM14 0L14 7L21 7L21 0ZM15 1L15 6L20 6L20 1ZM16 2L16 5L19 5L19 2ZM0 14L0 21L7 21L7 14ZM1 15L1 20L6 20L6 15ZM2 16L2 19L5 19L5 16Z" fill="#000000"/></g></g></svg>
