<?xml version="1.0" encoding="UTF-8"?>
<svg xmlns="http://www.w3.org/2000/svg" version="1.1" width="100" height="100" viewBox="0 0 100 100"><rect x="0" y="0" width="100" height="100" fill="#ffffff"/><g transform="scale(4.762)"><g transform="translate(0,0)"><path fill-rule="evenodd" d="M8 0L8 1L9 1L9 2L8 2L8 5L9 5L9 6L8 6L8 7L9 7L9 6L10 6L10 7L11 7L11 8L10 8L10 9L9 9L9 8L8 8L8 10L6 10L6 9L7 9L7 8L6 8L6 9L4 9L4 8L0 8L0 13L1 13L1 11L2 11L2 12L3 12L3 13L4 13L4 12L3 12L3 11L4 11L4 10L5 10L5 13L8 13L8 14L9 14L9 15L10 15L10 14L9 14L9 13L8 13L8 12L9 12L9 10L10 10L10 11L11 11L11 13L12 13L12 14L13 14L13 15L14 15L14 14L16 14L16 16L17 16L17 19L16 19L16 17L15 17L15 18L14 18L14 19L13 19L13 17L14 17L14 16L13 16L13 17L12 17L12 18L10 18L10 17L8 17L8 21L9 21L9 18L10 18L10 19L12 19L12 20L13 20L13 21L19 21L19 20L18 20L18 19L19 19L19 16L20 16L20 17L21 17L21 16L20 16L20 15L18 15L18 16L17 16L17 13L15 13L15 12L16 12L16 11L15 11L15 12L14 12L14 8L13 8L13 6L12 6L12 5L13 5L13 2L12 2L12 0L11 0L11 2L10 2L10 1L9 1L9 0ZM9 2L9 4L10 4L10 6L11 6L11 7L12 7L12 6L11 6L11 4L12 4L12 2L11 2L11 4L10 4L10 2ZM12 8L12 12L13 12L13 8ZM16 8L16 10L17 10L17 12L18 12L18 13L20 13L20 14L21 14L21 13L20 13L20 12L21 12L21 10L19 10L19 11L20 11L20 12L18 12L18 9L19 9L19 8ZM20 8L20 9L21 9L21 8ZM1 9L1 10L3 10L3 9ZM10 9L10 10L11 10L11 9ZM6 11L6 12L7 12L7 11ZM15 19L15 20L16 20L16 19ZM20 19L20 20L21 20L21 19ZM10 20L10 21L11 21L11 20ZM0 0L0 7L7 7L7 0ZM1 1L1 6L6 6L6 1ZM2 2L2 5L5 5L5 2ZM14 0L14 7L21 7L21 0ZM15 1L15 6L20 6L20 1ZM16 2L16 5L19 5L19 2ZM0 14L0 21L7 21L7 14ZM1 15L1 20L6 20L6 15ZM2 16L2 19L5 19L5 16Z" fill="#000000"/></g></g></svg>
