<?xml version="1.0" encoding="UTF-8"?>
<svg xmlns="http://www.w3.org/2000/svg" version="1.1" width="100" height="100" viewBox="0 0 100 100"><rect x="0" y="0" width="100" height="100" fill="#ffffff"/><g transform="scale(4.762)"><g transform="translate(0,0)"><path fill-rule="evenodd" d="M8 0L8 1L10 1L10 2L8 2L8 5L9 5L9 6L8 6L8 7L9 7L9 6L10 6L10 7L11 7L11 6L12 6L12 7L13 7L13 6L12 6L12 5L13 5L13 2L12 2L12 0L11 0L11 1L10 1L10 0ZM11 2L11 4L10 4L10 5L11 5L11 4L12 4L12 2ZM0 8L0 10L1 10L1 11L0 11L0 13L3 13L3 12L2 12L2 10L3 10L3 11L5 11L5 13L7 13L7 12L6 12L6 11L7 11L7 10L6 10L6 9L7 9L7 8L6 8L6 9L5 9L5 10L3 10L3 9L4 9L4 8ZM8 8L8 11L12 11L12 8L10 8L10 9L9 9L9 8ZM13 8L13 12L11 12L11 13L10 13L10 12L9 12L9 13L8 13L8 14L9 14L9 17L8 17L8 21L9 21L9 18L12 18L12 19L13 19L13 21L19 21L19 20L18 20L18 19L19 19L19 16L20 16L20 17L21 17L21 16L20 16L20 15L18 15L18 16L17 16L17 13L15 13L15 12L16 12L16 11L15 11L15 12L14 12L14 8ZM16 8L16 10L17 10L17 12L18 12L18 13L20 13L20 14L21 14L21 13L20 13L20 12L21 12L21 10L19 10L19 11L20 11L20 12L18 12L18 9L19 9L19 8ZM20 8L20 9L21 9L21 8ZM10 9L10 10L11 10L11 9ZM5 10L5 11L6 11L6 10ZM9 13L9 14L10 14L10 13ZM12 14L12 15L13 15L13 16L11 16L11 17L13 17L13 16L14 16L14 19L15 19L15 20L16 20L16 19L17 19L17 16L16 16L16 14L14 14L14 15L13 15L13 14ZM15 17L15 19L16 19L16 17ZM20 19L20 20L21 20L21 19ZM11 20L11 21L12 21L12 20ZM0 0L0 7L7 7L7 0ZM1 1L1 6L6 6L6 1ZM2 2L2 5L5 5L5 2ZM14 0L14 7L21 7L21 0ZM15 1L15 6L20 6L20 1ZM16 2L16 5L19 5L19 2ZM0 14L0 21L7 21L7 14ZM1 15L1 20L6 20L6 15ZM2 16L2 19L5 19L5 16Z" fill="#000000"/></g></g></svg>
