<?xml version="1.0" encoding="UTF-8"?>
<svg xmlns="http://www.w3.org/2000/svg" version="1.1" width="100" height="100" viewBox="0 0 100 100"><rect x="0" y="0" width="100" height="100" fill="#ffffff"/><g transform="scale(4.762)"><g transform="translate(0,0)"><path fill-rule="evenodd" d="M9 0L9 1L8 1L8 2L10 2L10 1L12 1L12 2L11 2L11 3L8 3L8 4L9 4L9 5L8 5L8 7L9 7L9 8L6 8L6 9L8 9L8 10L5 10L5 11L8 11L8 10L9 10L9 11L11 11L11 12L10 12L10 13L9 13L9 12L8 12L8 15L9 15L9 16L8 16L8 21L9 21L9 20L10 20L10 21L13 21L13 20L14 20L14 21L15 21L15 20L17 20L17 21L18 21L18 20L19 20L19 21L20 21L20 20L19 20L19 18L20 18L20 17L19 17L19 18L18 18L18 17L16 17L16 16L17 16L17 15L16 15L16 14L18 14L18 16L20 16L20 14L19 14L19 13L20 13L20 12L21 12L21 11L20 11L20 10L18 10L18 8L17 8L17 9L16 9L16 8L15 8L15 9L16 9L16 10L14 10L14 8L12 8L12 7L13 7L13 5L12 5L12 4L13 4L13 3L12 3L12 2L13 2L13 1L12 1L12 0ZM11 3L11 4L10 4L10 5L11 5L11 7L10 7L10 6L9 6L9 7L10 7L10 9L11 9L11 10L13 10L13 9L12 9L12 8L11 8L11 7L12 7L12 5L11 5L11 4L12 4L12 3ZM0 8L0 9L1 9L1 10L0 10L0 11L1 11L1 12L2 12L2 13L7 13L7 12L2 12L2 9L3 9L3 11L4 11L4 9L5 9L5 8ZM19 8L19 9L20 9L20 8ZM16 10L16 11L13 11L13 12L15 12L15 13L14 13L14 14L13 14L13 13L12 13L12 12L11 12L11 13L10 13L10 14L9 14L9 15L10 15L10 14L13 14L13 15L11 15L11 16L10 16L10 17L9 17L9 18L10 18L10 20L11 20L11 19L12 19L12 18L14 18L14 20L15 20L15 18L16 18L16 19L17 19L17 20L18 20L18 19L17 19L17 18L16 18L16 17L12 17L12 18L11 18L11 16L16 16L16 15L15 15L15 14L16 14L16 13L18 13L18 12L16 12L16 11L18 11L18 10ZM0 0L0 7L7 7L7 0ZM1 1L1 6L6 6L6 1ZM2 2L2 5L5 5L5 2ZM14 0L14 7L21 7L21 0ZM15 1L15 6L20 6L20 1ZM16 2L16 5L19 5L19 2ZM0 14L0 21L7 21L7 14ZM1 15L1 20L6 20L6 15ZM2 16L2 19L5 19L5 16Z" fill="#000000"/></g></g></svg>
