<?xml version="1.0" encoding="UTF-8"?>
<svg xmlns="http://www.w3.org/2000/svg" version="1.1" width="100" height="100" viewBox="0 0 100 100"><rect x="0" y="0" width="100" height="100" fill="#ffffff"/><g transform="scale(4.762)"><g transform="translate(0,0)"><path fill-rule="evenodd" d="M9 0L9 1L8 1L8 2L9 2L9 3L8 3L8 4L9 4L9 3L10 3L10 4L11 4L11 5L12 5L12 7L11 7L11 6L10 6L10 5L8 5L8 7L9 7L9 8L6 8L6 9L9 9L9 10L6 10L6 11L8 11L8 12L9 12L9 13L8 13L8 15L12 15L12 16L11 16L11 17L10 17L10 18L9 18L9 16L8 16L8 21L13 21L13 20L14 20L14 21L15 21L15 20L17 20L17 21L18 21L18 20L19 20L19 21L20 21L20 20L19 20L19 18L20 18L20 17L19 17L19 18L18 18L18 17L16 17L16 16L17 16L17 15L16 15L16 14L18 14L18 16L20 16L20 14L19 14L19 13L20 13L20 12L21 12L21 11L20 11L20 10L18 10L18 8L17 8L17 9L16 9L16 8L15 8L15 9L16 9L16 10L14 10L14 8L13 8L13 5L12 5L12 4L11 4L11 3L10 3L10 1L12 1L12 3L13 3L13 1L12 1L12 0ZM9 6L9 7L10 7L10 10L11 10L11 11L12 11L12 12L11 12L11 13L9 13L9 14L13 14L13 16L16 16L16 15L15 15L15 14L16 14L16 13L18 13L18 12L16 12L16 11L18 11L18 10L16 10L16 11L12 11L12 10L13 10L13 8L11 8L11 7L10 7L10 6ZM0 8L0 13L5 13L5 10L3 10L3 11L4 11L4 12L1 12L1 11L2 11L2 10L1 10L1 9L5 9L5 8ZM19 8L19 9L20 9L20 8ZM11 9L11 10L12 10L12 9ZM6 12L6 13L7 13L7 12ZM12 12L12 13L13 13L13 14L14 14L14 13L15 13L15 12ZM12 17L12 18L11 18L11 19L10 19L10 20L11 20L11 19L12 19L12 18L13 18L13 19L14 19L14 20L15 20L15 18L16 18L16 19L17 19L17 20L18 20L18 19L17 19L17 18L16 18L16 17L14 17L14 18L13 18L13 17ZM0 0L0 7L7 7L7 0ZM1 1L1 6L6 6L6 1ZM2 2L2 5L5 5L5 2ZM14 0L14 7L21 7L21 0ZM15 1L15 6L20 6L20 1ZM16 2L16 5L19 5L19 2ZM0 14L0 21L7 21L7 14ZM1 15L1 20L6 20L6 15ZM2 16L2 19L5 19L5 16Z" fill="#000000"/></g></g></svg>
