<?xml version="1.0" encoding="UTF-8"?>
<svg xmlns="http://www.w3.org/2000/svg" version="1.1" width="100" height="100" viewBox="0 0 100 100"><rect x="0" y="0" width="100" height="100" fill="#ffffff"/><g transform="scale(4.762)"><g transform="translate(0,0)"><path fill-rule="evenodd" d="M8 0L8 1L10 1L10 2L8 2L8 5L10 5L10 7L11 7L11 8L10 8L10 9L9 9L9 8L8 8L8 9L9 9L9 10L10 10L10 11L9 11L9 12L10 12L10 11L11 11L11 12L12 12L12 13L11 13L11 15L10 15L10 16L9 16L9 17L8 17L8 21L9 21L9 20L12 20L12 21L13 21L13 20L12 20L12 19L14 19L14 21L19 21L19 20L18 20L18 19L19 19L19 16L20 16L20 17L21 17L21 16L20 16L20 15L18 15L18 16L17 16L17 13L15 13L15 12L16 12L16 11L15 11L15 12L14 12L14 8L13 8L13 6L12 6L12 7L11 7L11 5L10 5L10 4L12 4L12 5L13 5L13 2L12 2L12 0L11 0L11 1L10 1L10 0ZM8 6L8 7L9 7L9 6ZM0 8L0 11L1 11L1 10L2 10L2 11L3 11L3 12L0 12L0 13L3 13L3 12L4 12L4 13L5 13L5 12L4 12L4 10L3 10L3 9L4 9L4 8ZM6 8L6 9L5 9L5 11L8 11L8 10L6 10L6 9L7 9L7 8ZM12 8L12 11L13 11L13 8ZM16 8L16 10L17 10L17 12L18 12L18 13L20 13L20 14L21 14L21 13L20 13L20 12L21 12L21 10L19 10L19 11L20 11L20 12L18 12L18 9L19 9L19 8ZM20 8L20 9L21 9L21 8ZM6 12L6 13L8 13L8 14L10 14L10 13L8 13L8 12ZM12 14L12 15L11 15L11 16L12 16L12 17L13 17L13 18L14 18L14 19L15 19L15 20L16 20L16 19L17 19L17 16L16 16L16 14L14 14L14 15L13 15L13 14ZM12 15L12 16L13 16L13 17L14 17L14 16L13 16L13 15ZM9 17L9 19L12 19L12 18L11 18L11 17ZM15 17L15 19L16 19L16 17ZM20 19L20 20L21 20L21 19ZM0 0L0 7L7 7L7 0ZM1 1L1 6L6 6L6 1ZM2 2L2 5L5 5L5 2ZM14 0L14 7L21 7L21 0ZM15 1L15 6L20 6L20 1ZM16 2L16 5L19 5L19 2ZM0 14L0 21L7 21L7 14ZM1 15L1 20L6 20L6 15ZM2 16L2 19L5 19L5 16Z" fill="#000000"/></g></g></svg>
